PathFileType	4	(X/Y/Z)	D:\TRACE\spotREDO_2-26-24\spot_baseline_4-v60.trc
DataRate	CameraRate	NumFrames	NumMarkers	Units	OrigDataRate	OrigDataStartFrame	OrigNumFrames
100.00	100.00	      21	9	mm	100.00	6126	      7000
Frame#	Time	front left toe			Front right toe			aft left toe			aft right toe			Arm			FL body			FR body			AL Body			AR Body			
		X1	Y1	Z1	X2	Y2	Z2	X3	Y3	Z3	X4	Y4	Z4	X5	Y5	Z5	X6	Y6	Z6	X7	Y7	Z7	X8	Y8	Z8	X9	Y9	Z9	

6126	61.250	-194.69647	36.19242	-149.57713	331.23526	25.28150	-129.31558	-309.64072	24.96749	330.59985	258.08487	28.72253	403.80725	79.03208	805.56873	-284.64136	-6.02830	546.12305	-270.42422	149.14948	551.18469	-252.59296	-114.91010	558.07886	606.55182	33.21934	558.22119	625.69312	
6127	61.260	-193.74548	25.18723	-149.36125	331.14963	25.28588	-129.31496	-309.61868	24.97220	330.62674	258.00455	28.73632	403.81662	78.75249	805.44006	-284.43710	-6.14894	546.00549	-270.11273	148.94600	551.14587	-252.46791	-115.13298	558.11664	606.72150	32.95063	558.21698	625.86725	
6128	61.270	-193.93825	20.27728	-150.68124	331.33771	25.33255	-129.21358	-309.64658	24.88769	330.60059	258.22488	28.81809	403.83917	78.58711	805.38196	-284.32553	-6.31945	545.96155	-269.85474	148.85846	551.10577	-252.38268	-115.31898	558.10199	606.78027	32.84553	558.20532	626.03430	
6129	61.280	-194.99159	20.90372	-149.63202	330.88837	25.42137	-129.19124	-309.49026	25.21732	330.40985	258.48462	27.77129	404.72824	78.40152	805.42438	-284.21027	-6.34395	546.91992	-269.73654	148.76180	551.39471	-252.18665	-115.35964	557.95044	606.98718	32.77325	557.86908	626.18988	
6130	61.290	-195.39525	21.90396	-148.67531	331.23492	25.98524	-129.28398	-309.76874	25.09909	330.54050	258.61899	27.16677	403.74728	79.56445	806.54156	-283.03418	-6.28274	547.62329	-269.42987	148.66237	552.18335	-251.90240	-115.80871	557.64258	607.20142	32.06339	557.76813	626.34906	
6131	61.300	-194.53323	21.83380	-149.15846	330.35770	25.05095	-129.38702	-309.76096	25.25557	330.50772	258.16495	27.55405	403.52652	79.42442	807.90668	-282.63263	-6.13470	547.70654	-269.38416	148.81036	552.87842	-251.77272	-116.10856	557.89594	607.20331	31.48149	558.32593	626.36633	
6132	61.310	-194.38387	22.16016	-148.88210	330.75360	24.93691	-129.16753	-309.73901	25.33611	330.35089	257.74130	27.87947	403.62924	78.85651	808.62244	-282.44244	-5.88646	547.71729	-269.40125	149.09663	553.29968	-251.44000	-116.80666	558.32471	607.18353	30.81917	559.30902	626.68616	
6133	61.320	-194.19720	21.96726	-149.08795	330.83374	24.92221	-129.15405	-309.91541	25.29442	330.31485	257.79709	27.90477	403.60544	78.19342	808.31012	-282.75702	-5.55941	547.98694	-269.29257	149.62491	553.80450	-251.17494	-117.40574	558.58911	607.19202	30.44611	559.61206	626.72998	
6134	61.330	-194.10251	22.11334	-149.08267	330.72507	25.51131	-128.82127	-309.90295	24.98919	330.37692	257.75113	27.71518	403.61209	77.94991	807.94635	-283.07770	-5.32887	548.23206	-269.28867	149.47594	554.11853	-251.12979	-118.00047	558.63623	607.06396	29.96876	559.93860	626.76886	
6135	61.340	-194.19899	22.04199	-149.01634	330.78354	25.47270	-128.85590	-309.97366	25.07119	330.42191	257.67755	27.68965	403.54926	77.83284	808.08826	-283.28162	-5.46280	548.24133	-269.37930	149.35947	554.27191	-251.14841	-118.24869	558.79413	606.97400	29.89786	560.42279	626.97894	
6136	61.350	-194.14832	21.95970	-148.98528	330.83771	25.40809	-128.87550	-309.94455	25.01924	330.42450	257.70740	27.67842	403.49875	77.64278	808.34320	-283.57507	-5.77139	548.07977	-269.50540	149.08038	554.31348	-251.29509	-118.46658	559.23413	606.88269	29.14098	560.94250	626.48669	
6137	61.360	-194.22603	21.84886	-149.05577	330.90390	24.92678	-129.18109	-309.99530	25.13832	330.35986	257.65717	27.73356	403.42825	77.24437	808.29761	-283.74579	-5.99279	547.93164	-269.61435	148.79608	554.35742	-251.47331	-118.74252	559.55255	606.61487	28.76298	561.25739	626.00800	
6138	61.370	-194.36729	21.70023	-149.11079	330.77280	25.47542	-128.93776	-309.89111	25.02487	330.32745	257.62637	27.92006	403.35406	76.83622	808.30219	-283.95541	-6.23050	547.79535	-269.74750	148.59322	554.32166	-251.71457	-118.89244	559.69177	606.38409	28.59061	561.45160	625.86371	
6139	61.380	-194.42326	21.54421	-149.15147	330.59476	25.44648	-129.09465	-309.90192	24.97401	330.32971	257.62317	27.87389	403.30072	75.94917	808.19800	-284.49039	-6.84292	547.77942	-270.17993	148.19954	554.23041	-251.98878	-119.02771	559.78046	606.07257	28.58701	561.48737	625.74445	
6140	61.390	-194.49187	21.39579	-149.14738	330.62817	25.01238	-129.39111	-309.94785	24.93248	330.28342	257.62186	27.86431	403.25140	75.47463	808.08594	-284.87628	-7.52973	547.72540	-270.64243	147.55615	554.19409	-252.47723	-119.21593	559.87384	605.85889	28.52779	561.58167	625.43347	
6141	61.400	-194.57439	21.42843	-149.10681	330.56915	25.06110	-129.43010	-310.01459	24.94776	330.34756	257.67639	27.81830	403.25983	74.83338	808.00134	-285.42188	-7.87749	547.65997	-270.85794	147.22270	554.19147	-252.75412	-119.29579	559.99487	605.68927	28.45208	561.78198	625.14764	
6142	61.410	-194.71655	21.48587	-149.06171	330.50888	25.55962	-129.25381	-310.03186	24.95711	330.41269	257.89017	27.78046	403.20346	74.18821	807.84790	-285.84290	-8.23495	547.48822	-271.15472	146.63889	554.07825	-253.16646	-119.35445	560.17804	605.46936	28.38602	562.14398	624.75946	
6143	61.420	-194.75790	21.44589	-149.09084	330.43195	25.04743	-129.67860	-310.02521	24.93916	330.38031	257.68903	27.73755	403.01929	73.13203	807.67639	-286.45236	-8.77348	547.10828	-271.49997	145.89973	554.01392	-253.81274	-119.51379	560.42352	605.09131	28.14891	562.53235	624.31653	
6144	61.430	-194.81453	21.35865	-149.14441	331.69800	26.14238	-129.33307	-309.93219	24.86428	330.32336	257.94168	27.57993	402.77359	72.52234	807.39618	-286.84351	-9.44011	546.90704	-272.11444	145.48122	553.84442	-254.28477	-119.69164	560.50348	604.73230	27.77339	562.76245	623.76990	
6145	61.440	-194.78284	21.24718	-149.16820	331.49402	26.02027	-129.39394	-309.94833	24.78223	330.32562	257.92093	28.18112	403.31805	71.94383	807.28735	-287.69443	-10.03393	546.73792	-272.50708	145.10721	553.74194	-254.63507	-119.84294	560.57019	604.40039	27.65048	562.90527	623.44635	
6146	61.450	-194.99173	21.36555	-149.15230	331.37842	26.06424	-129.45285	-309.96329	24.81852	330.31149	257.78378	28.16773	403.26804	71.40298	807.26215	-288.20969	-10.30266	546.62921	-272.79050	144.62340	553.73767	-255.12541	-120.08265	560.73047	603.82013	27.85206	563.10419	622.96039	
